<svg width="25" height="22" viewBox="0 0 25 22" fill="none" xmlns="http://www.w3.org/2000/svg">
<g id="Ai" filter="url(#filter0_i_372_84)">
<path id="Vector" d="M12.5567 16.6582H5.55456L4.12402 21.0816C4.10803 21.1622 4.06248 21.234 3.99631 21.2827C3.93013 21.3315 3.84812 21.3537 3.76638 21.3451H0.227673C0.0206213 21.3451 -0.0358472 21.2322 0.0206216 21.0063L6.0816 3.55755C6.13807 3.36932 6.19454 3.16227 6.26983 2.93639C6.34558 2.53299 6.38339 2.12337 6.38276 1.71291C6.37713 1.66577 6.38951 1.61824 6.41743 1.57984C6.44536 1.54144 6.48676 1.51502 6.53335 1.50586H11.4085C11.5591 1.50586 11.6344 1.56233 11.6532 1.65644L18.5235 21.044C18.58 21.251 18.5235 21.3451 18.3353 21.3451H14.4013C14.3348 21.3515 14.2681 21.3343 14.2131 21.2964C14.158 21.2586 14.118 21.2025 14.1002 21.1381L12.5567 16.6582ZM6.64629 12.8372H11.4273C11.3144 12.4419 11.1638 11.9714 10.9944 11.482C10.825 10.9926 10.6556 10.4279 10.4862 9.8632C10.3168 9.29851 10.1285 8.715 9.94029 8.13149C9.75207 7.54799 9.58266 7.00212 9.43208 6.45626C9.28149 5.9104 9.14973 5.43983 9.01797 4.98808H8.98033C8.81116 5.80846 8.59752 6.61904 8.34035 7.41623C8.058 8.31972 7.77566 9.26086 7.47449 10.202C7.21097 11.162 6.92863 12.0466 6.64629 12.8372V12.8372Z" fill="white"/>
<path id="Vector_2" d="M22.6252 4.7246C22.3163 4.73137 22.009 4.6766 21.7214 4.5635C21.4338 4.4504 21.1716 4.28122 20.95 4.06581C20.5187 3.59428 20.289 2.97276 20.31 2.33411C20.2989 2.02293 20.3535 1.71291 20.4702 1.42426C20.587 1.13561 20.7633 0.87481 20.9876 0.658874C21.4401 0.231248 22.0403 -0.00482003 22.6629 7.46202e-05C23.397 7.46202e-05 23.9617 0.225949 24.3758 0.658874C24.7928 1.11528 25.0156 1.71617 24.9969 2.33411C25.0084 2.65213 24.956 2.96923 24.8429 3.26666C24.7297 3.5641 24.5581 3.83583 24.3381 4.06581C24.1163 4.29172 23.8486 4.46743 23.5532 4.58108C23.2577 4.69473 22.9412 4.74367 22.6252 4.7246V4.7246ZM20.5171 21.0628V6.56924C20.5171 6.38101 20.5923 6.30572 20.7618 6.30572H24.4887C24.6581 6.30572 24.7334 6.39984 24.7334 6.56924V21.0628C24.7334 21.2699 24.6581 21.364 24.4887 21.364H20.7994C20.7598 21.3672 20.7201 21.3615 20.683 21.3473C20.646 21.333 20.6126 21.3105 20.5855 21.2816C20.5583 21.2526 20.5381 21.2179 20.5262 21.18C20.5144 21.1422 20.5113 21.1021 20.5171 21.0628V21.0628Z" fill="white"/>
</g>
<defs>
<filter id="filter0_i_372_84" x="0" y="0" width="25" height="25.3652" filterUnits="userSpaceOnUse" color-interpolation-filters="sRGB">
<feFlood flood-opacity="0" result="BackgroundImageFix"/>
<feBlend mode="normal" in="SourceGraphic" in2="BackgroundImageFix" result="shape"/>
<feColorMatrix in="SourceAlpha" type="matrix" values="0 0 0 0 0 0 0 0 0 0 0 0 0 0 0 0 0 0 127 0" result="hardAlpha"/>
<feOffset dy="4"/>
<feGaussianBlur stdDeviation="2"/>
<feComposite in2="hardAlpha" operator="arithmetic" k2="-1" k3="1"/>
<feColorMatrix type="matrix" values="0 0 0 0 0 0 0 0 0 0 0 0 0 0 0 0 0 0 0.3 0"/>
<feBlend mode="normal" in2="shape" result="effect1_innerShadow_372_84"/>
</filter>
</defs>
</svg>
