<svg width="25" height="25" viewBox="0 0 25 25" fill="none" xmlns="http://www.w3.org/2000/svg">
<g filter="url(#filter0_i_312_313)">
<path fill-rule="evenodd" clip-rule="evenodd" d="M18.8271 7.53711C22.355 7.53717 25 9.84039 25 14.7881V24.0234H19.6387V15.4062C19.6387 13.2416 18.8627 11.7637 16.9219 11.7637C15.4408 11.7637 14.5584 12.7599 14.1709 13.7217C14.0292 14.0664 13.9941 14.5469 13.9941 15.0283V24.0244H8.63281C8.63281 24.0244 8.70347 9.428 8.63281 7.91602H13.9941V10.1973C14.7057 9.10046 15.9807 7.53711 18.8271 7.53711ZM5.67676 23.9482H0.31543V7.83984H5.67676V23.9482ZM3.0332 0C4.86711 5.5477e-05 5.99639 1.20293 6.03125 2.78223C6.03125 4.32883 4.86724 5.56627 2.99805 5.56641H2.96387C1.16398 5.56641 0 4.32892 0 2.78223C7.51168e-05 1.20289 1.19922 0 3.0332 0Z" fill="white"/>
</g>
<defs>
<filter id="filter0_i_312_313" x="0" y="0" width="25" height="28.0234" filterUnits="userSpaceOnUse" color-interpolation-filters="sRGB">
<feFlood flood-opacity="0" result="BackgroundImageFix"/>
<feBlend mode="normal" in="SourceGraphic" in2="BackgroundImageFix" result="shape"/>
<feColorMatrix in="SourceAlpha" type="matrix" values="0 0 0 0 0 0 0 0 0 0 0 0 0 0 0 0 0 0 127 0" result="hardAlpha"/>
<feOffset dy="4"/>
<feGaussianBlur stdDeviation="2"/>
<feComposite in2="hardAlpha" operator="arithmetic" k2="-1" k3="1"/>
<feColorMatrix type="matrix" values="0 0 0 0 0 0 0 0 0 0 0 0 0 0 0 0 0 0 0.3 0"/>
<feBlend mode="normal" in2="shape" result="effect1_innerShadow_312_313"/>
</filter>
</defs>
</svg>
