<svg width="24" height="20" viewBox="0 0 24 20" fill="none" xmlns="http://www.w3.org/2000/svg">
<g filter="url(#filter0_i_312_309)">
<path d="M23.0693 17.2803C23.0692 18.34 22.2091 19.2002 21.1465 19.2002H1.92188C0.861187 19.2002 0.000147723 18.34 0 17.2803L0.015625 5.75977C0.0522393 5.77976 9.66243 10.8922 11.5342 10.8926C13.5895 10.8926 23.0547 5.75977 23.0547 5.75977L23.0693 17.2803ZM21.1465 0C22.2092 0 23.0693 0.860118 23.0693 1.91992L23.0547 2.87988C23.0547 2.87988 13.4993 8.25293 11.5342 8.25293C9.66002 8.2525 0.0129719 2.78275 0 2.77539V1.91992C4.22455e-05 0.860133 0.860162 2.42716e-05 1.92188 0H21.1465Z" fill="white"/>
</g>
<defs>
<filter id="filter0_i_312_309" x="0" y="0" width="23.0703" height="23.2012" filterUnits="userSpaceOnUse" color-interpolation-filters="sRGB">
<feFlood flood-opacity="0" result="BackgroundImageFix"/>
<feBlend mode="normal" in="SourceGraphic" in2="BackgroundImageFix" result="shape"/>
<feColorMatrix in="SourceAlpha" type="matrix" values="0 0 0 0 0 0 0 0 0 0 0 0 0 0 0 0 0 0 127 0" result="hardAlpha"/>
<feOffset dy="4"/>
<feGaussianBlur stdDeviation="2"/>
<feComposite in2="hardAlpha" operator="arithmetic" k2="-1" k3="1"/>
<feColorMatrix type="matrix" values="0 0 0 0 0 0 0 0 0 0 0 0 0 0 0 0 0 0 0.3 0"/>
<feBlend mode="normal" in2="shape" result="effect1_innerShadow_312_309"/>
</filter>
</defs>
</svg>
