<svg width="25" height="25" viewBox="0 0 25 25" fill="none" xmlns="http://www.w3.org/2000/svg">
<g id="meta" filter="url(#filter0_i_372_82)">
<path id="Vector" d="M23.4375 14.8438C23.4375 9.375 20.7031 5.46875 17.1875 5.46875C14.4531 5.46875 12.5 8.59375 12.5 8.59375C10.9375 10.9375 10.9375 15.2344 13.2812 10.5469C13.2812 10.5469 15.2344 7.42188 17.1875 7.42188C19.9219 7.42188 21.3627 12.1094 21.3627 14.8438C21.3627 15.625 21.0938 17.1875 19.5312 17.1875V19.5312C21.0938 19.5312 23.4375 18.3594 23.4375 14.8438Z" fill="white"/>
<path id="Vector_2" d="M7.8125 5.46875V7.8125C5.3125 8.125 3.90625 12.1094 3.90625 14.8438C3.90625 15.625 4.29687 17.1875 5.46875 17.1875C7.42187 17.1875 9.66776 12.875 11.7187 9.72077C12.8075 8.04633 13.8913 9.48405 13.0649 10.9375C11.1068 14.3814 9.14611 19.5312 5.46875 19.5312C3.90625 19.5312 1.5625 18.3594 1.5625 14.8438C1.5625 7.8125 5.85937 5.46875 7.8125 5.46875Z" fill="white"/>
<path id="Vector_3" d="M19.5313 17.1875C16.7969 17.1875 13.6719 5.46875 7.8125 5.46875V7.8125C12.5 7.8125 14.4531 19.5312 19.5313 19.5312V17.1875Z" fill="white"/>
</g>
<defs>
<filter id="filter0_i_372_82" x="0" y="0" width="25" height="29" filterUnits="userSpaceOnUse" color-interpolation-filters="sRGB">
<feFlood flood-opacity="0" result="BackgroundImageFix"/>
<feBlend mode="normal" in="SourceGraphic" in2="BackgroundImageFix" result="shape"/>
<feColorMatrix in="SourceAlpha" type="matrix" values="0 0 0 0 0 0 0 0 0 0 0 0 0 0 0 0 0 0 127 0" result="hardAlpha"/>
<feOffset dy="4"/>
<feGaussianBlur stdDeviation="2"/>
<feComposite in2="hardAlpha" operator="arithmetic" k2="-1" k3="1"/>
<feColorMatrix type="matrix" values="0 0 0 0 0 0 0 0 0 0 0 0 0 0 0 0 0 0 0.3 0"/>
<feBlend mode="normal" in2="shape" result="effect1_innerShadow_372_82"/>
</filter>
</defs>
</svg>
