<svg width="25" height="25" viewBox="0 0 25 25" fill="none" xmlns="http://www.w3.org/2000/svg">
<g id="Notion" filter="url(#filter0_i_372_74)">
<g clip-path="url(#clip0_372_74)">
<path id="Vector" fill-rule="evenodd" clip-rule="evenodd" d="M4.68454 4.44838C5.45811 5.07688 5.74831 5.02893 7.20097 4.932L20.8957 4.10969C21.1861 4.10969 20.9446 3.81993 20.8478 3.77179L18.5734 2.12757C18.1376 1.78922 17.557 1.40175 16.4442 1.49868L3.18353 2.46586C2.69991 2.51381 2.60333 2.75562 2.79591 2.94943L4.68454 4.44838ZM5.50674 7.63994V22.0492C5.50674 22.8236 5.89373 23.1133 6.76472 23.0654L21.8152 22.1945C22.6867 22.1466 22.7837 21.614 22.7837 20.9849V6.67232C22.7837 6.04426 22.5421 5.70557 22.0087 5.75391L6.28076 6.67232C5.70031 6.7211 5.50669 7.01145 5.50669 7.63994H5.50674ZM20.3646 8.41288C20.4611 8.8485 20.3646 9.28372 19.9281 9.3327L19.203 9.47719V20.115C18.5734 20.4534 17.9928 20.6469 17.509 20.6469C16.7344 20.6469 16.5404 20.4049 15.9602 19.68L11.2167 12.2335V19.4382L12.7178 19.7769C12.7178 19.7769 12.7178 20.6469 11.5068 20.6469L8.1683 20.8405C8.07133 20.6469 8.1683 20.1637 8.50694 20.067L9.37813 19.8255V10.2994L8.16855 10.2025C8.07152 9.7669 8.31313 9.1388 8.99115 9.09006L12.5725 8.84864L17.509 16.3921V9.71895L16.2504 9.57451C16.1538 9.04196 16.5404 8.65528 17.0244 8.60733L20.3646 8.41288ZM2.07014 1.16038L15.8633 0.144607C17.5572 -0.000664465 17.993 0.0966559 19.0576 0.869984L23.4605 3.96462C24.187 4.49677 24.4292 4.64165 24.4292 5.22176V22.1945C24.4292 23.2582 24.0417 23.8873 22.6869 23.9836L6.66886 24.9508C5.65187 24.9993 5.16786 24.8544 4.63526 24.177L1.39286 19.9702C0.811926 19.1958 0.570312 18.6165 0.570312 17.9387V2.85216C0.570312 1.98229 0.957931 1.25667 2.07014 1.16038V1.16038Z" fill="white"/>
</g>
</g>
<defs>
<filter id="filter0_i_372_74" x="0" y="0" width="25" height="29" filterUnits="userSpaceOnUse" color-interpolation-filters="sRGB">
<feFlood flood-opacity="0" result="BackgroundImageFix"/>
<feBlend mode="normal" in="SourceGraphic" in2="BackgroundImageFix" result="shape"/>
<feColorMatrix in="SourceAlpha" type="matrix" values="0 0 0 0 0 0 0 0 0 0 0 0 0 0 0 0 0 0 127 0" result="hardAlpha"/>
<feOffset dy="4"/>
<feGaussianBlur stdDeviation="2"/>
<feComposite in2="hardAlpha" operator="arithmetic" k2="-1" k3="1"/>
<feColorMatrix type="matrix" values="0 0 0 0 0 0 0 0 0 0 0 0 0 0 0 0 0 0 0.3 0"/>
<feBlend mode="normal" in2="shape" result="effect1_innerShadow_372_74"/>
</filter>
<clipPath id="clip0_372_74">
<rect width="25" height="25" fill="white"/>
</clipPath>
</defs>
</svg>
