<svg width="25" height="19" viewBox="0 0 25 19" fill="none" xmlns="http://www.w3.org/2000/svg">
<g id="Ps" filter="url(#filter0_i_372_78)">
<path id="Vector" d="M0 18.1084V0.294306C0 0.173121 0.0519362 0.103872 0.173121 0.103872C0.467426 0.103872 0.744419 0.103873 1.1426 0.0865605C1.54077 0.0692484 1.99089 0.0692482 2.45831 0.0519361C2.92574 0.034624 3.42779 0.0346239 3.96447 0.0173118C4.50114 -2.6442e-07 5.0205 0 5.53986 0C6.95945 0 8.13668 0.173121 9.10615 0.536675C9.97521 0.831803 10.7677 1.31673 11.426 1.95627C11.9838 2.51594 12.4148 3.189 12.6898 3.92984C12.9518 4.65131 13.0865 5.41283 13.0879 6.18042C13.0879 7.66926 12.7417 8.89841 12.0492 9.86789C11.3535 10.836 10.3822 11.5721 9.26196 11.98C8.08474 12.4128 6.78633 12.5686 5.36674 12.5686C4.95125 12.5686 4.67426 12.5686 4.50114 12.5513C4.32802 12.534 4.08565 12.534 3.75672 12.534V18.0911C3.76058 18.1196 3.75869 18.1486 3.75114 18.1763C3.7436 18.2041 3.73056 18.23 3.7128 18.2526C3.69504 18.2752 3.67292 18.294 3.64775 18.3079C3.62258 18.3218 3.59488 18.3305 3.56629 18.3335H0.207745C0.0692484 18.3335 0 18.2643 0 18.1084ZM3.77403 3.44511V9.26197C4.0164 9.27928 4.24146 9.29659 4.4492 9.29659H5.36674C6.04258 9.2974 6.71437 9.19225 7.35763 8.98498C7.90952 8.82268 8.40259 8.50399 8.77722 8.06743C9.14078 7.63463 9.3139 7.04602 9.3139 6.28429C9.33019 5.74331 9.19207 5.20887 8.91572 4.74351C8.62706 4.29402 8.20253 3.94833 7.70387 3.75672C7.05395 3.50218 6.35855 3.38431 5.66105 3.41048C5.21093 3.41048 4.81276 3.41048 4.48383 3.42779C4.24719 3.41232 4.00964 3.41812 3.77403 3.44511V3.44511Z" fill="white"/>
<path id="Vector_2" d="M23.8923 8.2055C23.3696 7.9302 22.8098 7.73194 22.2303 7.61689C21.5939 7.47276 20.9439 7.39731 20.2914 7.39183C19.941 7.37975 19.5908 7.42061 19.2527 7.51302C19.037 7.55789 18.8458 7.68129 18.716 7.85926C18.6285 7.99973 18.5807 8.16124 18.5775 8.32668C18.5855 8.49138 18.6462 8.64916 18.7506 8.7768C18.9147 8.96925 19.1146 9.128 19.3392 9.24423C19.7374 9.45197 20.1529 9.6424 20.5684 9.81552C21.5037 10.1304 22.3986 10.5546 23.2344 11.0793C23.803 11.4368 24.2731 11.9307 24.6021 12.5162C24.8803 13.0685 25.0171 13.6812 25.0003 14.2994C25.0143 15.1176 24.7788 15.9208 24.3251 16.6019C23.8422 17.2929 23.1684 17.8284 22.3861 18.1426C21.5379 18.5062 20.4991 18.6966 19.2527 18.6966C18.4623 18.6998 17.6736 18.6244 16.8982 18.4716C16.2876 18.3661 15.6938 18.1798 15.1324 17.9176C15.072 17.8873 15.0218 17.84 14.988 17.7816C14.9542 17.7231 14.9382 17.6561 14.942 17.5887V14.5763C14.9405 14.5468 14.9459 14.5172 14.958 14.4902C14.97 14.4631 14.9882 14.4393 15.0112 14.4205C15.0356 14.4063 15.0639 14.4003 15.092 14.4035C15.12 14.4066 15.1463 14.4186 15.167 14.4379C15.8339 14.831 16.5582 15.1172 17.3137 15.2861C17.9807 15.4597 18.6673 15.547 19.3565 15.5458C20.0144 15.5458 20.4818 15.4593 20.7934 15.3035C20.9324 15.2393 21.0502 15.1367 21.133 15.008C21.2158 14.8792 21.2602 14.7294 21.2609 14.5763C21.2609 14.334 21.1224 14.1089 20.8454 13.8839C20.5684 13.6588 19.9971 13.3991 19.1488 13.0702C18.2786 12.7636 17.4521 12.3445 16.6905 11.8237C16.148 11.4371 15.6985 10.9344 15.3748 10.3522C15.0985 9.80542 14.9617 9.1988 14.9766 8.58637C14.9791 7.84765 15.1826 7.12354 15.5652 6.4916C16.005 5.79663 16.6362 5.24354 17.383 4.89889C18.1966 4.4834 19.218 4.29297 20.4472 4.29297C21.1656 4.29317 21.883 4.34524 22.5939 4.44878C23.105 4.51794 23.6053 4.65174 24.0827 4.84696C24.1588 4.87392 24.2211 4.92995 24.2558 5.00276C24.2758 5.07035 24.2874 5.14011 24.2905 5.21051V8.03238C24.2907 8.06602 24.283 8.09925 24.268 8.12934C24.253 8.15944 24.231 8.18553 24.2039 8.2055C24.1032 8.24171 23.993 8.24171 23.8923 8.2055Z" fill="white"/>
</g>
<defs>
<filter id="filter0_i_372_78" x="0" y="0" width="25" height="22.6973" filterUnits="userSpaceOnUse" color-interpolation-filters="sRGB">
<feFlood flood-opacity="0" result="BackgroundImageFix"/>
<feBlend mode="normal" in="SourceGraphic" in2="BackgroundImageFix" result="shape"/>
<feColorMatrix in="SourceAlpha" type="matrix" values="0 0 0 0 0 0 0 0 0 0 0 0 0 0 0 0 0 0 127 0" result="hardAlpha"/>
<feOffset dy="4"/>
<feGaussianBlur stdDeviation="2"/>
<feComposite in2="hardAlpha" operator="arithmetic" k2="-1" k3="1"/>
<feColorMatrix type="matrix" values="0 0 0 0 0 0 0 0 0 0 0 0 0 0 0 0 0 0 0.3 0"/>
<feBlend mode="normal" in2="shape" result="effect1_innerShadow_372_78"/>
</filter>
</defs>
</svg>
