<svg width="25" height="25" viewBox="0 0 25 25" fill="none" xmlns="http://www.w3.org/2000/svg">
<g id="Premium Icons" filter="url(#filter0_i_372_13664)">
<path id="Vector" d="M9.58333 2.5C8.4325 2.5 7.5 3.4325 7.5 4.58333C7.5 5.73417 8.4325 6.66667 9.58333 6.66667H11.6667V4.58333C11.6667 3.4325 10.7342 2.5 9.58333 2.5ZM14.5833 2.5C13.4325 2.5 12.5 3.4325 12.5 4.58333V9.58333C12.5 10.7342 13.4325 11.6667 14.5833 11.6667C15.7342 11.6667 16.6667 10.7342 16.6667 9.58333V4.58333C16.6667 3.4325 15.7342 2.5 14.5833 2.5ZM4.58333 7.5C3.4325 7.5 2.5 8.4325 2.5 9.58333C2.5 10.7342 3.4325 11.6667 4.58333 11.6667H9.58333C10.7342 11.6667 11.6667 10.7342 11.6667 9.58333C11.6667 8.4325 10.7342 7.5 9.58333 7.5H4.58333ZM19.5833 7.5C18.4325 7.5 17.5 8.4325 17.5 9.58333V11.6667H19.5833C20.7342 11.6667 21.6667 10.7342 21.6667 9.58333C21.6667 8.4325 20.7342 7.5 19.5833 7.5ZM4.58333 12.5C3.4325 12.5 2.5 13.4325 2.5 14.5833C2.5 15.7342 3.4325 16.6667 4.58333 16.6667C5.73417 16.6667 6.66667 15.7342 6.66667 14.5833V12.5H4.58333ZM9.58333 12.5C8.4325 12.5 7.5 13.4325 7.5 14.5833V19.5833C7.5 20.7342 8.4325 21.6667 9.58333 21.6667C10.7342 21.6667 11.6667 20.7342 11.6667 19.5833V14.5833C11.6667 13.4325 10.7342 12.5 9.58333 12.5ZM14.5833 12.5C13.4325 12.5 12.5 13.4325 12.5 14.5833C12.5 15.7342 13.4325 16.6667 14.5833 16.6667H19.5833C20.7342 16.6667 21.6667 15.7342 21.6667 14.5833C21.6667 13.4325 20.7342 12.5 19.5833 12.5H14.5833ZM12.5 17.5V19.5833C12.5 20.7342 13.4325 21.6667 14.5833 21.6667C15.7342 21.6667 16.6667 20.7342 16.6667 19.5833C16.6667 18.4325 15.7342 17.5 14.5833 17.5H12.5Z" fill="white"/>
</g>
<defs>
<filter id="filter0_i_372_13664" x="0" y="0" width="25" height="29" filterUnits="userSpaceOnUse" color-interpolation-filters="sRGB">
<feFlood flood-opacity="0" result="BackgroundImageFix"/>
<feBlend mode="normal" in="SourceGraphic" in2="BackgroundImageFix" result="shape"/>
<feColorMatrix in="SourceAlpha" type="matrix" values="0 0 0 0 0 0 0 0 0 0 0 0 0 0 0 0 0 0 127 0" result="hardAlpha"/>
<feOffset dy="4"/>
<feGaussianBlur stdDeviation="2"/>
<feComposite in2="hardAlpha" operator="arithmetic" k2="-1" k3="1"/>
<feColorMatrix type="matrix" values="0 0 0 0 0 0 0 0 0 0 0 0 0 0 0 0 0 0 0.3 0"/>
<feBlend mode="normal" in2="shape" result="effect1_innerShadow_372_13664"/>
</filter>
</defs>
</svg>
